Coordinates
version=1
nRows=4
nColumns=107
inDegrees=yes

Units are S.I. units (second, meters, Newtons, ...)
If the header above contains a line with 'inDegrees', this indicates whether rotational values are in degrees (yes) or radians (no).

endheader
time	sternoclavicular_r2	sternoclavicular_r3	unrotscap_r3	unrotscap_r2	acromioclavicular_r2	acromioclavicular_r3	acromioclavicular_r1	unrothum_r1	unrothum_r3	unrothum_r2	elv_angle	shoulder_elv	shoulder1_r2	shoulder_rot	elbow_flexion	pro_sup	deviation	flexion	proximal_distal_r1	proximal_distal_r3	cmc_flexion	cmc_abduction	mp_flexion	ip_flexion	mcp2_flexion	mcp2_abduction	pm2_flexion	md2_flexion	mcp3_flexion	mcp3_abduction	pm3_flexion	md3_flexion	mcp4_flexion	mcp4_abduction	pm4_flexion	md4_flexion	mcp5_flexion	mcp5_abduction	pm5_flexion	md5_flexion	bicpt_tx	bicpt_ty	bicpt_tz	bicpt2_tx	bicpt2_ty	bicpt2_tz	ptpt_tx	ptpt_ty	ptpt_tz	FCUpt_tx	FCUpt_ty	FCUpt_tz	EDCpt_tx	EDCpt_ty	EDCpt_tz	APLpt_tx	APLpt_ty	APLpt_tz	FPLpt_tx	FPLpt_ty	FPLpt_tz	FPLpt2_tx	FPLpt2_ty	FPLpt2_tz	PEC1pt2_tx	PEC1pt2_ty	PEC1pt2_tz	PEC1pt3_tx	PEC1pt3_ty	PEC1pt3_tz	PEC2pt2_tx	PEC2pt2_ty	PEC2pt2_tz	PEC2pt3_tx	PEC2pt3_ty	PEC2pt3_tz	PEC3pt2_tx	PEC3pt2_ty	PEC3pt2_tz	PEC3pt3_tx	PEC3pt3_ty	PEC3pt3_tz	DELT2pt2a_tx	DELT2pt2a_ty	DELT2pt2a_tz	DELT2pt2_tx	DELT2pt2_ty	DELT2pt2_tz	LAT1pt2_tx	LAT1pt2_ty	LAT1pt2_tz	LAT1pt3_tx	LAT1pt3_ty	LAT1pt3_tz	LAT2pt2_tx	LAT2pt2_ty	LAT2pt2_tz	LAT2pt3_tx	LAT2pt3_ty	LAT2pt3_tz	LAT3pt2_tx	LAT3pt2_ty	LAT3pt2_tz	LAT3pt3_tx	LAT3pt3_ty	LAT3pt3_tz
      1.50000000	     -0.31167225	      0.13200965	     -0.13200965	      0.31167225	     -0.06310729	      0.51001092	      0.22924640	     -0.22924640	     -0.51001092	      0.06310729	    103.47399492	     73.79117525	     -1.80596190	    -42.25134191	     29.73203602	     84.70400138	      0.35361969	     -0.24481795	      0.37756008	     -0.12240897	     23.02393401	    -10.32854338	      0.73412418	      0.21623193	     24.47135753	      0.34382375	     15.42814504	    -13.45933042	     14.86804260	     -5.83860381	     19.32402887	     16.81941419	      6.95306075	     -7.71894795	     14.94059306	     22.05962075	     -6.64172108	    -11.65674404	     17.93008239	      5.03173829	      0.00088344	     -0.03100775	     -0.00484890	      0.01437197	     -0.01827685	     -0.00129681	      0.00129133	     -0.06894696	     -0.00687336	      0.01258938	     -0.18228139	      0.00004873	     -0.01016446	      0.00350715	     -0.00071605	      0.00020031	      0.00008013	      0.00040063	      0.00025640	      0.00076921	      0.00043268	      0.00000459	     -0.00028111	     -0.00033733	      0.00241871	      0.00848599	      0.00590330	     -0.00791206	      0.01910373	     -0.01811985	      0.00241871	      0.00848599	      0.00590330	      0.00053294	      0.01770990	     -0.00930589	      0.00385697	      0.00471895	      0.01574098	      0.00000000	      0.00727906	      0.00000000	     -0.00692818	     -0.03201720	     -0.00599896	      0.02330527	     -0.00119330	     -0.01426517	     -0.00086090	      0.01443029	     -0.00590330	      0.00237772	      0.02082553	     -0.01721796	     -0.00578031	      0.01250352	     -0.00528837	     -0.01205257	      0.02640087	     -0.02955749	     -0.02262931	      0.01397934	     -0.00709216	     -0.01500422	      0.03050038	     -0.03693661
      1.53333333	     -0.31137521	      0.13188384	     -0.13188384	      0.31137521	     -0.06304715	      0.50952486	      0.22902792	     -0.22902792	     -0.50952486	      0.06304715	    103.50239162	     73.72084903	     -1.80645752	    -42.50419102	     29.83504460	     84.49872898	      0.35329591	     -0.24322854	      0.37730789	     -0.12161427	     22.97059331	    -10.45716255	      0.71199667	      0.21412824	     24.54692647	      0.25809652	     15.49010265	    -13.44860687	     15.03129719	     -5.91123471	     19.42250890	     16.84819209	      7.08413861	     -7.72909169	     15.02796784	     22.09632154	     -6.57122655	    -11.67669286	     17.97428435	      5.04615791	      0.00088685	     -0.03101955	     -0.00485080	      0.01439251	     -0.01830484	     -0.00133155	      0.00130650	     -0.06893715	     -0.00685683	      0.01256589	     -0.18228825	      0.00004330	     -0.01013982	      0.00349598	     -0.00070962	      0.00019931	      0.00007973	      0.00039863	      0.00025512	      0.00076536	      0.00043052	      0.00000471	     -0.00028113	     -0.00033735	      0.00241641	      0.00847790	      0.00589767	     -0.00790452	      0.01908552	     -0.01810258	      0.00241641	      0.00847790	      0.00589767	      0.00053243	      0.01769302	     -0.00929703	      0.00385424	      0.00471446	      0.01573406	      0.00000000	      0.00726511	      0.00000000	     -0.00692157	     -0.03198668	     -0.00598737	      0.02337545	     -0.00120261	     -0.01441932	     -0.00086008	      0.01441653	     -0.00589767	      0.00237545	      0.02080568	     -0.01720155	     -0.00577480	      0.01249160	     -0.00528333	     -0.01204108	      0.02637570	     -0.02952932	     -0.02260775	      0.01396602	     -0.00708540	     -0.01498992	      0.03047131	     -0.03690141
      1.56666667	     -0.31040067	      0.13147107	     -0.13147107	      0.31040067	     -0.06284982	      0.50793015	      0.22831111	     -0.22831111	     -0.50793015	      0.06284982	    104.14138938	     73.49011759	     -1.81761013	    -44.81621502	     29.65754432	     85.41913374	      0.32527214	     -0.32390082	      0.35484045	     -0.16195041	     22.29182259	    -10.20766679	      1.97437319	      0.00239682	     25.60598410	      0.26470870	     16.38137796	    -14.06209599	     15.94220027	     -5.94684319	     20.27907491	     17.49971435	      7.36455915	     -7.84427491	     16.93694249	     24.06175406	     -6.03471301	    -12.00874508	     19.60355870	      5.04101421	      0.00088098	     -0.03099921	     -0.00484752	      0.01429956	     -0.01825662	     -0.00117528	      0.00123849	     -0.06898113	     -0.00693097	      0.01267133	     -0.18225736	      0.00006793	     -0.01025027	      0.00354619	     -0.00073866	      0.00024354	      0.00009742	      0.00048708	      0.00031173	      0.00093519	      0.00052604	      0.00000629	     -0.00028123	     -0.00033747	      0.00240884	      0.00845137	      0.00587921	     -0.00787978	      0.01902579	     -0.01804592	      0.00240884	      0.00845137	      0.00587921	      0.00053076	      0.01763764	     -0.00926793	      0.00384529	      0.00469970	      0.01571128	      0.00000000	      0.00721942	      0.00000000	     -0.00689991	     -0.03188657	     -0.00594941	      0.02397794	     -0.00128814	     -0.01585041	     -0.00085739	      0.01437141	     -0.00587921	      0.00236802	      0.02074056	     -0.01714771	     -0.00575673	      0.01245250	     -0.00526680	     -0.01200340	      0.02629315	     -0.02943690	     -0.02253699	      0.01392231	     -0.00706322	     -0.01494300	      0.03037594	     -0.03678592
      1.60000000	     -0.31085420	      0.13166317	     -0.13166317	      0.31085420	     -0.06294165	      0.50867230	      0.22864470	     -0.22864470	     -0.50867230	      0.06294165	    103.78167963	     73.59749533	     -1.81133201	    -43.55387303	     29.83234430	     85.27747332	      0.34973025	     -0.26669751	      0.37452073	     -0.13334876	     22.99380968	    -10.99719138	      0.96211545	      0.32358441	     25.45424142	      0.31017807	     16.62809573	    -13.22700917	     16.01848178	     -5.95811832	     20.55269900	     17.35137821	      7.68383976	     -7.81300744	     17.24373734	     22.91856865	     -5.32032844	    -12.02779742	     18.79358801	      5.04577208	      0.00088676	     -0.03101924	     -0.00485075	      0.01431400	     -0.01830410	     -0.00119941	      0.00124896	     -0.06897436	     -0.00691956	      0.01265508	     -0.18226213	      0.00006409	     -0.01023327	      0.00353844	     -0.00073416	      0.00021331	      0.00008532	      0.00042661	      0.00027303	      0.00081909	      0.00046074	      0.00000466	     -0.00028112	     -0.00033734	      0.00241236	      0.00846372	      0.00588780	     -0.00789129	      0.01905359	     -0.01807229	      0.00241236	      0.00846372	      0.00588780	      0.00053154	      0.01766341	     -0.00928147	      0.00384946	      0.00470657	      0.01572190	      0.00000000	      0.00724067	      0.00000000	     -0.00690999	     -0.03193316	     -0.00596706	      0.02365789	     -0.00124135	     -0.01506426	     -0.00085864	      0.01439241	     -0.00588780	      0.00237148	      0.02077087	     -0.01717276	     -0.00576514	      0.01247070	     -0.00527449	     -0.01202093	      0.02633157	     -0.02947991	     -0.02256992	      0.01394265	     -0.00707354	     -0.01496484	      0.03042032	     -0.03683967
